# xmcd CD database file
#
# Track frame offsets:
#	150
#	23936
#	52533
#	64864
#	75574
#	89148
#	103627
#	114795
#	126893
#	144034
#	157762
#	169357
#	183023
#	195912
#	208433
#	220409
#	233442
#	244648
#
# Disc length: 3427 seconds
#
# Revision: 0
# Processed by: cddbd v1.5.2PL0 Copyright (c) Steve Scherf et al.
# Submitted via: CDex 1.51
#
DISCID=e30d6112
DTITLE=Various Artist - New York, New York CD 09
DYEAR=2011
DGENRE=Jazz
TTITLE0=NINA SIMONE - My Way
TTITLE1=SARAH VAUGHAN - Send In The Clowns
TTITLE2=ELLA FITZGERALD - All Or Nothing At All
TTITLE3=BILLIE HOLIDAY - My Man
TTITLE4=BESSIE SMITH - Nobody Knows When You're Down and Out
TTITLE5=DINAH SHORE - Blues In The Night
TTITLE6=PEGGY LEE - Up A Lazy River
TTITLE7=DORIS DAY - Singin' In The Rain
TTITLE8=JULIE ANDREWS - I Could have danced all night
TTITLE9=VERA LYNN - We' Meet Again
TTITLE10=GINGER ROGERS - Let Yourself Go
TTITLE11=EARTHA KITT - C'est Si Bon
TTITLE12=JUDY GARLAND - Over The Rainbow
TTITLE13=DINAH WASHINGTON - Baby, You've Got What It Takes
TTITLE14=MAHALIA JACKSON - Get Away Jordan
TTITLE15=PEGGY LEE - It' A Good Day
TTITLE16=JUNE CHRISTY - Are You Livin' Old Man
TTITLE17=ANITA O'DAY - Gotta Be Gettin'
EXTD=YEAR: 2011
EXTT0=
EXTT1=
EXTT2=
EXTT3=
EXTT4=
EXTT5=
EXTT6=
EXTT7=
EXTT8=
EXTT9=
EXTT10=
EXTT11=
EXTT12=
EXTT13=
EXTT14=
EXTT15=
EXTT16=
EXTT17=
PLAYORDER=
